<!-- icon666.com - MILLIONS vector ICONS FREE --><svg id="Layer_1" enable-background="new 0 0 50 50" viewBox="0 0 50 50" xmlns="http://www.w3.org/2000/svg" xmlns:xlink="http://www.w3.org/1999/xlink"><defs><path id="SVGID_1_" d="m44.9 11.6c-.6-1-1.4-1.9-2.1-2.7-.5-.6-1.1-1.1-1.6-1.6-.3-.3-.6-.5-.9-.8-4.2-3.4-9.5-5.5-15.3-5.5s-11.1 2.1-15.3 5.5c-.3.2-.5.5-.8.7-.6.6-1.1 1.1-1.7 1.7-.8.9-1.5 1.8-2.1 2.7-2.6 3.8-4.1 8.4-4.1 13.4 0 5 1.5 9.6 4.1 13.4 1.5 2.2 3.4 4.2 5.5 5.8 4 3 9 4.8 14.4 4.8s10.3-1.8 14.4-4.8c2.2-1.6 4-3.6 5.5-5.8 2.6-3.8 4.1-8.4 4.1-13.4 0-5-1.5-9.6-4.1-13.4z" fill="#000000" style="fill: rgb(204, 247, 255);"></path><clipPath id="SVGID_2_"><use xlink:href="#SVGID_1_"></use></clipPath></defs><g><g><use fill="#e6e6e6" xlink:href="#SVGID_1_"></use><path clip-path="url(#SVGID_2_)" d="m42.8 30.6c-10 1.2-19.1 3.6-25.2 1.2-.2-.1-.5-.2-.7-.4s-.3-.4-.4-.6c-.6-1.4-7-5.1-7.2-6.6l2.8 1.6c.8-1.5 4.7-2.1 5.7-3.5.7-1 1.3-.1 2.4-1.5.9-1 1-1.9 2.5-3.4.6-.6 1-2.5 1.9-2.4 1.1.2 2.3 3.6 3.5 4.5.8.6 1.6.4 2.8 1.2 1.3.9 2.4 2.4 3.9 3 1.1.4 1.2.2 2.5 1.3 4.2 3.8 4.1 4.7 5.5 5.6z" fill="#515151" style="fill: rgb(40, 133, 0);"></path><path clip-path="url(#SVGID_2_)" d="m30.7 22.4c-.1-.1-1.5-.6-1.6-1.3-.1-.4.1-.4-.3-.7-.3-.2-.5-.6-.6-1-1.2-.9-2.4-4.4-3.5-4.5-.9-.1-1.3 1.8-1.9 2.4-1.6 1.6-1.7 2.4-2.5 3.4 0 .2 0 .3-.1.4v-.1c-.2.8-.5 1.6-1 2.3.9-.5 1.8-2.2 1.8-2.6.1-.3.1-.3.4-.4.5-.2 1.5-2.2 1.8-2.4.1 2.5-.1 1.9 1.5 4.8.3.5.4 1.1.5 1.6 0-.7-.1-2-.3-2.4-.2-.3-.4-.3-.5-1.5-.1-2.6.2-2 .3-3.3.4.3 0 .5 1 1.4.2.2 3.6 3.5 3.9 3.8.6.6.7-.3 1.6.7.4.4.8.8 1.2 1.3-.4-.5-1.3-1.7-1.7-1.9z" fill="#494848" style="fill: rgb(56, 168, 75);"></path><path clip-path="url(#SVGID_2_)" d="m37.4 25c-1.3-1.2-1.4-.9-2.5-1.3-1.5-.6-2.6-2.1-3.9-3 .3 1.3 3.5 3.5 3.7 4.8.2.8.2 2.2 1 3.2.1.1 0 .4-.2.4-1-.1-2.8.8-4.1 1.4-.7.3-3 .6-3.1 1.4 0 .5 1.3-.2 1.6.2.4.4 1.2.1 1.8.1 7.7.3 7.5.7 9.3-.8.5-.4.8-.7.8-1.4-.8-1.1-.7-1.5-4.4-5z" fill="#5b5a5a" style="fill: rgb(9, 133, 0);"></path><path clip-path="url(#SVGID_2_)" d="m38.8 31.4c-1-.1-9.9.7-13.3.3-1.6-.2-10.8-2.2-24.4-1.3l-.1 18.6h48v-16.9c-1-1.1-6-.3-10.2-.7z" fill="#88c057" style="fill: rgb(41, 244, 26);"></path><path clip-path="url(#SVGID_2_)" d="m45 46.1c-1.5-1.1-1.3-.4-2.7-1.6-2-1.7-1.6-2.5-4.5-3.5-.2-.1-.2-1.3-1.2-1.5-.6-.1-.8-.1-1.1-.2-1.1-.5.7-1.3 0-2.4-.1-.2-.4-.3-.6-.4-.8-.8-1.2-.9-1.4-1.3-.1-.3.1-.6-.1-.8-.4-.4-1-.4 2.6-.7 1.9-.2 1.1-1 .9-1s-.4 0-.5 0c-.4-.2-2.2-.2-2.6-.2-.1 0-.4.1-.4.1.3.2.5.3.3.4-1.1 0-1.7 0-2.1 0-.7.1-.3.2-1.6.3-.3 0-2.5.3-2.8.6-.1.1-.1.1-.2.2s-.3.1-.4.2c-.3.2-.5.8-1.2.7-.3-.1-.5.2-.8.3-.4.1-.8 0-1.1 0-.5 0-1 .3-1.4.4-2.9.8-1.9 0-4 1-.6.3-1.2.4-1.8.5-.7 0-1.4.3-2.1.6-7.9 2.7-7.9 3.5-9.8 5.2-.7.6-1.1 1.4-1.7 2-.4.6-1.1 1-1.7 2.8v1.2h48v-.8c-.9-.8-2-.6-4-2.1z" fill="#7caa50" style="fill: rgb(125, 217, 38);"></path><path clip-path="url(#SVGID_2_)" d="m48.6 49h-47.2c1.6-1.5.8-1.2 2.7-4.2.2-.3.4-.7.7-1 .5-.5 3.5-2.4 3.3-2.3 4.3-2.5 4.5-2.2 5.6-2.5.6-.2 1.1-.5 1.7-.7.4-.1.8-.2 1.1-.3.7-.2 1.4-.7 2.2-.9 1.4-.2 1.9-.5 2.4-.5.7-.1.1.1 2.5-.7 1-.3 1 .1 1.4-.4.3-.4 1.2.1 1.5-.4.1-.2.1-.4.3-.6.1-.1.4 0 .4-.2 0-.1 0-.4.4-.4 1.6-.2-.1-.1 2.4-.4 1.4-.3 1.1-.3 1.4-.3.2 0 3.2-.3 2.6-.5-.3-.1-.6-.2-.8-.3 3.5.2 3.5.2 3.6.4.3 1.1-4.7.1-4.2 1.3.1.3.4.3.4.4.1.1-.1.4.1.4.2.5.4 1 .9 1.3s1.5.7.7 1.7c-.4.5-.2 1.4.5 1.7.5.2 1.8 0 1.8.8 0 .5-.4.6.4 1 .6.3.9.9 1.4 1.3.4.3.8.5 1.2.9 1.1 1-.3.4 3.6 2.7 1.3.8 1.5.7 2.2.9.9.4 1.6 1.2 2.6 1.5z" fill="#92d3ff" style="fill: rgb(18, 156, 248);"></path><path clip-path="url(#SVGID_2_)" d="m25.4 31.7c-3-.6-3.8.5-10 0-1.7-.1-14.2-.1-14.4-.2v-14c.2.2 2.5 3.3 6.3 3.9 7.2 1.2 11.1 6.5 11.9 6.7 1 .3 4.7 2.1 6.2 3.6z" fill="#666" style="fill: rgb(8, 78, 9);"></path><path clip-path="url(#SVGID_2_)" d="m49 18.3v15.3c-1.9-1.1-2-.7-3.8-1.2-2.3-.7-5.5-.6-6.3-.9-.7-.3-2.6.2-3.3.1 1-.1 3.7-2.3 4.2-2.6.4-.2.8-.3 1.1-.5.5-.3 1.9-3.7 2.4-3.9.6-.4 5.6-6.3 5.7-6.3z" fill="#666" style="fill: rgb(8, 78, 9);"></path><g fill="#7caa50"><path clip-path="url(#SVGID_2_)" d="m44.9 36.8s.5-.5.2-1.1c0 0 .2.1.2.9 0 0 0-.2 0-.3 0 0-.2.3-.4.5z" fill="#7caa50" style="fill: rgb(125, 217, 38);"></path><path clip-path="url(#SVGID_2_)" d="m45.7 36.5s.5-.5.2-1.1c0 0 .2.1.2.9 0 0 0-.2 0-.3 0 0-.2.3-.4.5z" fill="#7caa50" style="fill: rgb(125, 217, 38);"></path><path clip-path="url(#SVGID_2_)" d="m45.3 36.7s.5-.8.2-1.9c0 0 .2.2.2 1.5 0 0 0-.3 0-.6 0 .1-.2.7-.4 1z" fill="#7caa50" style="fill: rgb(125, 217, 38);"></path><path clip-path="url(#SVGID_2_)" d="m45.6 36.8s.3-.5.1-1.1c0 0 .1.1.1.9 0 0 0-.2 0-.4.1.1 0 .5-.2.6z" fill="#7caa50" style="fill: rgb(125, 217, 38);"></path><path clip-path="url(#SVGID_2_)" d="m45.9 36.9s.2-.2.1-.4c0 0 .1 0 .1.3v-.1c-.1 0-.1.1-.2.2z" fill="#7caa50" style="fill: rgb(125, 217, 38);"></path><path clip-path="url(#SVGID_2_)" d="m45.3 37.1s.1-.1.1-.3c0 0 .1 0 0 .3 0 0 0 0 0-.1.1 0 0 .1-.1.1z" fill="#7caa50" style="fill: rgb(125, 217, 38);"></path><path clip-path="url(#SVGID_2_)" d="m44.7 36.9s.2-.2.1-.5c0 0 .1 0 .1.4 0 0 0-.1 0-.2-.1 0-.1.2-.2.3z" fill="#7caa50" style="fill: rgb(125, 217, 38);"></path><path clip-path="url(#SVGID_2_)" d="m45.2 36.1s.3-.3.2-.7c0 0 .1.1.1.6 0 0 0-.1 0-.2 0 0-.1.2-.3.3z" fill="#7caa50" style="fill: rgb(125, 217, 38);"></path><path clip-path="url(#SVGID_2_)" d="m46.1 36.5s.2-.2.2-.6c0 0 0 .3.2.6 0 0-.1-.1-.2-.2 0-.1 0 0-.2.2z" fill="#7caa50" style="fill: rgb(125, 217, 38);"></path><path clip-path="url(#SVGID_2_)" d="m40.6 38.9s.3-.2.1-.6c0 0 .1.1.1.5 0 0 0-.1 0-.2 0 0-.1.2-.2.3z" fill="#7caa50" style="fill: rgb(125, 217, 38);"></path><path clip-path="url(#SVGID_2_)" d="m41 38.7s.3-.2.1-.6c0 0 .1.1.1.5 0 0 0-.1 0-.2 0 0-.1.2-.2.3z" fill="#7caa50" style="fill: rgb(125, 217, 38);"></path><path clip-path="url(#SVGID_2_)" d="m40.8 38.8s.3-.4.1-1c0 0 .1.1.1.8 0 0 0-.2 0-.3 0 0-.1.4-.2.5z" fill="#7caa50" style="fill: rgb(125, 217, 38);"></path><path clip-path="url(#SVGID_2_)" d="m41 38.9s.2-.3.1-.6c0 0 .1.1.1.5 0 0 0-.1 0-.2-.1 0-.2.2-.2.3z" fill="#7caa50" style="fill: rgb(125, 217, 38);"></path><path clip-path="url(#SVGID_2_)" d="m41.1 39s.1-.1.1-.2c-.1-.1 0 0-.1.2.1 0 .1-.1.1-.1 0-.1-.1 0-.1.1z" fill="#7caa50" style="fill: rgb(125, 217, 38);"></path><path clip-path="url(#SVGID_2_)" d="m40.8 39.1s.1-.1 0-.2c0 0 .1 0 0 .2.1-.1.1-.1 0 0 .1-.1 0-.1 0 0z" fill="#7caa50" style="fill: rgb(125, 217, 38);"></path><path clip-path="url(#SVGID_2_)" d="m40.4 38.9s.1-.1.1-.3c0 .1 0 .1-.1.3.1 0 .1-.1.1-.1s0 .1-.1.1z" fill="#7caa50" style="fill: rgb(125, 217, 38);"></path><path clip-path="url(#SVGID_2_)" d="m40.7 38.5s.2-.2.1-.4c0 0 .1 0 .1.3v-.1s-.1.2-.2.2z" fill="#7caa50" style="fill: rgb(125, 217, 38);"></path><path clip-path="url(#SVGID_2_)" d="m41.2 38.7s.1-.1.1-.3c0 0 0 .2.1.3 0 0-.1 0-.1-.1 0 0 0 0-.1.1z" fill="#7caa50" style="fill: rgb(125, 217, 38);"></path><path clip-path="url(#SVGID_2_)" d="m44.8 42.5s.6-.6.3-1.4c0 0 .2.1.2 1.1 0 0 0-.2 0-.4 0 0-.2.5-.5.7z" fill="#7caa50" style="fill: rgb(125, 217, 38);"></path><path clip-path="url(#SVGID_2_)" d="m45.8 42.1s.6-.6.3-1.4c0 0 .2.1.2 1.1 0 0 0-.2 0-.4 0 0-.2.5-.5.7z" fill="#7caa50" style="fill: rgb(125, 217, 38);"></path><path clip-path="url(#SVGID_2_)" d="m45.3 42.4s.6-1 .3-2.4c0 0 .2.2.2 2 0 0 0-.4 0-.8 0 0-.2.8-.5 1.2z" fill="#7caa50" style="fill: rgb(125, 217, 38);"></path><path clip-path="url(#SVGID_2_)" d="m45.7 42.5s.4-.6.2-1.4c0 0 .1.1.1 1.2 0 0 0-.2 0-.5 0 0-.1.5-.3.7z" fill="#7caa50" style="fill: rgb(125, 217, 38);"></path><path clip-path="url(#SVGID_2_)" d="m46 42.6s.2-.2.1-.5c0 0 .1.1.1.4 0 0 0-.1 0-.2 0 .1-.1.3-.2.3z" fill="#7caa50" style="fill: rgb(125, 217, 38);"></path><path clip-path="url(#SVGID_2_)" d="m45.4 42.9s.2-.2.1-.4c0 0 .1 0 .1.3v-.1c-.1 0-.2.1-.2.2z" fill="#7caa50" style="fill: rgb(125, 217, 38);"></path><path clip-path="url(#SVGID_2_)" d="m44.5 42.6s.3-.3.1-.6c0 0 .1.1.1.5 0 0 0-.1 0-.2 0 0-.1.2-.2.3z" fill="#7caa50" style="fill: rgb(125, 217, 38);"></path><path clip-path="url(#SVGID_2_)" d="m45.2 41.6s.4-.4.2-.9c0 0 .2.1.1.7 0 0 0-.1 0-.3 0 .1-.1.4-.3.5z" fill="#7caa50" style="fill: rgb(125, 217, 38);"></path><path clip-path="url(#SVGID_2_)" d="m46.3 42.1s.2-.2.2-.8c0 0 0 .4.3.7 0 0-.2-.1-.2-.3-.1 0-.1.2-.3.4z" fill="#7caa50" style="fill: rgb(125, 217, 38);"></path><path clip-path="url(#SVGID_2_)" d="m40.1 35.2s.4-.3.2-.8c0 0 .1.1.1.7 0 0 0-.1 0-.3 0 0-.1.3-.3.4z" fill="#7caa50" style="fill: rgb(125, 217, 38);"></path><path clip-path="url(#SVGID_2_)" d="m40.7 35s.4-.3.2-.8c0 0 .1.1.1.7 0 0 0-.1 0-.3-.1 0-.2.3-.3.4z" fill="#7caa50" style="fill: rgb(125, 217, 38);"></path><path clip-path="url(#SVGID_2_)" d="m40.4 35.1s.4-.6.2-1.4c0 0 .1.1.1 1.1 0 0 0-.2 0-.4 0 .1-.1.5-.3.7z" fill="#7caa50" style="fill: rgb(125, 217, 38);"></path><path clip-path="url(#SVGID_2_)" d="m40.6 35.2s.2-.3.1-.8c0 0 .1.1.1.7 0 0 0-.1 0-.3 0 0-.1.3-.2.4z" fill="#7caa50" style="fill: rgb(125, 217, 38);"></path><path clip-path="url(#SVGID_2_)" d="m40.8 35.3s.1-.1.1-.3c0 0 .1 0 0 .3 0 0 0 0 0-.1s0 .1-.1.1z" fill="#7caa50" style="fill: rgb(125, 217, 38);"></path><path clip-path="url(#SVGID_2_)" d="m40.4 35.5s.1-.1.1-.2 0-.1-.1.2c.1 0 .1-.1.1-.1 0-.1 0 0-.1.1z" fill="#7caa50" style="fill: rgb(125, 217, 38);"></path><path clip-path="url(#SVGID_2_)" d="m39.9 35.3s.2-.2.1-.4c0 0 .1 0 .1.3v-.1c-.1 0-.1.1-.2.2z" fill="#7caa50" style="fill: rgb(125, 217, 38);"></path><path clip-path="url(#SVGID_2_)" d="m40.3 34.7s.2-.2.1-.5c0 0 .1 0 .1.4 0 0 0-.1 0-.2 0 .1-.1.2-.2.3z" fill="#7caa50" style="fill: rgb(125, 217, 38);"></path><path clip-path="url(#SVGID_2_)" d="m41 35s.1-.1.1-.4c0 0 0 .2.1.4 0 0-.1-.1-.1-.2 0 0 0 .1-.1.2z" fill="#7caa50" style="fill: rgb(125, 217, 38);"></path><path clip-path="url(#SVGID_2_)" d="m9.8 35.8s.7-.7.4-1.7c0 0 .3.2.2 1.4 0 0 0-.3-.1-.5.1 0-.1.6-.5.8z" fill="#7caa50" style="fill: rgb(125, 217, 38);"></path><path clip-path="url(#SVGID_2_)" d="m11 35.3s.7-.7.4-1.7c0 0 .3.2.2 1.4 0 0 0-.3-.1-.5.1 0-.2.6-.5.8z" fill="#7caa50" style="fill: rgb(125, 217, 38);"></path><path clip-path="url(#SVGID_2_)" d="m10.4 35.6s.7-1.2.4-2.9c0 0 .3.3.2 2.3 0 0 0-.4-.1-.9.1.1-.2 1.1-.5 1.5z" fill="#7caa50" style="fill: rgb(125, 217, 38);"></path><path clip-path="url(#SVGID_2_)" d="m10.9 35.8s.4-.7.2-1.7c0 0 .2.2.1 1.4 0 0 0-.3 0-.5.1 0-.1.6-.3.8z" fill="#7caa50" style="fill: rgb(125, 217, 38);"></path><path clip-path="url(#SVGID_2_)" d="m11.3 36s.3-.3.1-.6c0 0 .1.1.1.5 0 0 0-.1 0-.2s-.1.2-.2.3z" fill="#7caa50" style="fill: rgb(125, 217, 38);"></path><path clip-path="url(#SVGID_2_)" d="m10.5 36.3s.2-.2.1-.5c0 0 .1 0 .1.4 0 0 0-.1 0-.2-.1 0-.1.2-.2.3z" fill="#7caa50" style="fill: rgb(125, 217, 38);"></path><path clip-path="url(#SVGID_2_)" d="m9.4 35.9s.3-.3.2-.8c0 0 .1.1.1.6 0 0 0-.1 0-.2 0 .1-.1.3-.3.4z" fill="#7caa50" style="fill: rgb(125, 217, 38);"></path><path clip-path="url(#SVGID_2_)" d="m10.3 34.8s.5-.4.2-1c0 0 .2.1.2.8 0 0 0-.2 0-.3-.1-.1-.2.3-.4.5z" fill="#7caa50" style="fill: rgb(125, 217, 38);"></path><path clip-path="url(#SVGID_2_)" d="m11.6 35.3s.3-.3.3-.9c0 0 0 .5.3.8 0 0-.2-.1-.3-.4 0 .1 0 .3-.3.5z" fill="#7caa50" style="fill: rgb(125, 217, 38);"></path><path clip-path="url(#SVGID_2_)" d="m3.8 38.8s.5-.4.2-1c0 0 .2.1.2.8 0 0 0-.2 0-.3-.1-.1-.2.3-.4.5z" fill="#7caa50" style="fill: rgb(125, 217, 38);"></path><path clip-path="url(#SVGID_2_)" d="m4.5 38.5s.5-.4.2-1c0 0 .2.1.2.8 0 0 0-.2 0-.3 0 0-.2.3-.4.5z" fill="#7caa50" style="fill: rgb(125, 217, 38);"></path><path clip-path="url(#SVGID_2_)" d="m4.2 38.7s.5-.7.2-1.8c0 0 .2.2.2 1.4 0 0 0-.3 0-.6-.1.1-.2.7-.4 1z" fill="#7caa50" style="fill: rgb(125, 217, 38);"></path><path clip-path="url(#SVGID_2_)" d="m4.5 38.8s.3-.4.1-1.1c0 0 .1.1.1.9 0 0 0-.2 0-.3s-.1.3-.2.5z" fill="#7caa50" style="fill: rgb(125, 217, 38);"></path><path clip-path="url(#SVGID_2_)" d="m4.7 38.8s.2-.2.1-.4c0 0 .1 0 .1.3v-.1c-.1.1-.1.2-.2.2z" fill="#7caa50" style="fill: rgb(125, 217, 38);"></path><path clip-path="url(#SVGID_2_)" d="m4.2 39s.1-.1.1-.3c0 0 .1 0 0 .2 0 0 0 0 0-.1 0 .1 0 .2-.1.2z" fill="#7caa50" style="fill: rgb(125, 217, 38);"></path><path clip-path="url(#SVGID_2_)" d="m3.6 38.8s.2-.2.1-.5c0 0 .1 0 .1.4v-.1c-.1 0-.1.2-.2.2z" fill="#7caa50" style="fill: rgb(125, 217, 38);"></path><path clip-path="url(#SVGID_2_)" d="m4.1 38.1s.3-.3.1-.6c0 0 .1.1.1.5 0 0 0-.1 0-.2 0 0-.1.2-.2.3z" fill="#7caa50" style="fill: rgb(125, 217, 38);"></path><path clip-path="url(#SVGID_2_)" d="m4.9 38.5s.2-.2.2-.6c0 0 0 .3.2.5 0 0-.1-.1-.2-.2 0 0 0 .1-.2.3z" fill="#7caa50" style="fill: rgb(125, 217, 38);"></path><path clip-path="url(#SVGID_2_)" d="m4.3 34.6s.3-.3.2-.8c0 0 .1.1.1.6 0 0 0-.1 0-.2 0 .1-.1.3-.3.4z" fill="#7caa50" style="fill: rgb(125, 217, 38);"></path><path clip-path="url(#SVGID_2_)" d="m4.9 34.4s.3-.3.2-.8c0 0 .1.1.1.6 0 0 0-.1 0-.2-.1 0-.2.3-.3.4z" fill="#7caa50" style="fill: rgb(125, 217, 38);"></path><path clip-path="url(#SVGID_2_)" d="m4.6 34.6s.3-.5.2-1.3c0 0 .1.1.1 1.1 0 0 0-.2 0-.4-.1-.1-.2.4-.3.6z" fill="#7caa50" style="fill: rgb(125, 217, 38);"></path><path clip-path="url(#SVGID_2_)" d="m4.8 34.6s.2-.3.1-.8c0 0 .1.1.1.6 0 0 0-.1 0-.2 0 .1-.1.3-.2.4z" fill="#7caa50" style="fill: rgb(125, 217, 38);"></path><path clip-path="url(#SVGID_2_)" d="m5 34.7s.1-.1.1-.3c0 0 .1 0 0 .2 0 0 0 0 0-.1 0 .1-.1.2-.1.2z" fill="#7caa50" style="fill: rgb(125, 217, 38);"></path><path clip-path="url(#SVGID_2_)" d="m4.6 34.8s.1-.1.1-.2c0 0 0 0-.1.2.1 0 .1-.1.1-.1s0 .1-.1.1z" fill="#7caa50" style="fill: rgb(125, 217, 38);"></path><path clip-path="url(#SVGID_2_)" d="m4.1 34.7s.2-.1.1-.3c0 0 .1 0 .1.3v-.1c0-.1-.1 0-.2.1z" fill="#7caa50" style="fill: rgb(125, 217, 38);"></path><path clip-path="url(#SVGID_2_)" d="m4.5 34.2s.2-.2.1-.5c0 0 .1 0 .1.4 0 0 0-.1 0-.2 0 0-.1.2-.2.3z" fill="#7caa50" style="fill: rgb(125, 217, 38);"></path><path clip-path="url(#SVGID_2_)" d="m5.1 34.4s.1-.1.1-.4c0 0 0 .2.1.4 0 0-.1-.1-.1-.2.1 0 .1.1-.1.2z" fill="#7caa50" style="fill: rgb(125, 217, 38);"></path><path clip-path="url(#SVGID_2_)" d="m19.3 33.8s.3-.3.2-.8c0 0 .1.1.1.6 0 0 0-.1 0-.2 0 0-.1.3-.3.4z" fill="#7caa50" style="fill: rgb(125, 217, 38);"></path><path clip-path="url(#SVGID_2_)" d="m19.9 33.6s.3-.3.2-.8c0 0 .1.1.1.6 0 0 0-.1 0-.2-.1 0-.2.3-.3.4z" fill="#7caa50" style="fill: rgb(125, 217, 38);"></path><path clip-path="url(#SVGID_2_)" d="m19.6 33.8s.3-.5.2-1.3c0 0 .1.1.1 1.1 0 0 0-.2 0-.4 0-.1-.1.4-.3.6z" fill="#7caa50" style="fill: rgb(125, 217, 38);"></path><path clip-path="url(#SVGID_2_)" d="m19.8 33.8s.2-.3.1-.8c0 0 .1.1.1.6 0 0 0-.1 0-.2 0 0-.1.3-.2.4z" fill="#7caa50" style="fill: rgb(125, 217, 38);"></path><path clip-path="url(#SVGID_2_)" d="m20 33.9s.1-.1.1-.3c0 0 .1 0 0 .2 0 0 0 0 0-.1 0 .1 0 .2-.1.2z" fill="#7caa50" style="fill: rgb(125, 217, 38);"></path><path clip-path="url(#SVGID_2_)" d="m19.6 34s.1-.1.1-.2c0 0 0 0-.1.2.1 0 .1-.1.1-.1s0 .1-.1.1z" fill="#7caa50" style="fill: rgb(125, 217, 38);"></path><path clip-path="url(#SVGID_2_)" d="m19.1 33.9s.2-.1.1-.3c0 0 .1 0 .1.3v-.1c0-.1-.1 0-.2.1z" fill="#7caa50" style="fill: rgb(125, 217, 38);"></path><path clip-path="url(#SVGID_2_)" d="m19.5 33.4s.2-.2.1-.5c0 0 .1 0 .1.4 0 0 0-.1 0-.2 0 0-.1.2-.2.3z" fill="#7caa50" style="fill: rgb(125, 217, 38);"></path><path clip-path="url(#SVGID_2_)" d="m20.1 33.6s.1-.1.1-.4c0 0 0 .2.1.4 0 0-.1-.1-.1-.2.1 0 .1.1-.1.2z" fill="#7caa50" style="fill: rgb(125, 217, 38);"></path></g><path clip-path="url(#SVGID_2_)" d="m44.6 48.8c-2.9-.8-2.6-1.3-3.2-1.8s-1.1-.2-2.7-2.3c-.7-1-.7-.2-2-1.7-.7-.8.3-1.3-1.6-2.3-1.6-.9-1.6-1.3-1.3-2.7.3-1.5-.6-1.4-.8-1.8-.2-.3 0-.9-.4-1-.1-.1-.2-.2-.1-.4s.1-.2 0-.4c-.2-.5 0-.8.2-.9.1-.1 1.1-.3 2-.4.2 0 1.5-.1 1.6-.1.1-.1.1-.2-.2-.3-.6-.1-1.2 0-1.7-.2.6.7-.2.3-4.6 1.3-2.4.5-1.8.6-2.2.8-.4.3-.3.6-.8.8-2.8 1.3-1.8.3-11.1 4.1-.5.2-1.6.3-2 .5-9.3 4.1-8 5.3-10 8.9h41.3c-.1 0-.3 0-.4-.1z" fill="#fff" opacity=".15"></path><path clip-path="url(#SVGID_2_)" d="m13.7 29.3c-1-.8-2.3-1.2-3.2-2-.4-.4-.7-.8-1-1.2-2.3-2.5-5.4-1.5-8.5-4.7v10.2s13.6.1 15 .2c-.9-.7-1.4-1.8-2.3-2.5z" fill="#6d6b6b" style="fill: rgb(38, 77, 0);"></path><path clip-path="url(#SVGID_2_)" d="m45.9 25.5c-.8.4-.9.2-1.1.7-.3.9-1.1 1.5-1.5 2.4-.6 1.2-.5.7-1.1 1.5-.1.1-.2.3-.4.5-.6.6-1.7.4-2.1 1.2 6 .4 4.2.7 7.2 1.2.7.1 1.5.5 2.1.9v-10.2c-1.2 0-2 1.2-3.1 1.8z" fill="#6d6b6b" style="fill: rgb(38, 77, 0);"></path><path clip-path="url(#SVGID_2_)" d="m31.1 21c0-.1 0-.2-.1-.3z" fill="none"></path><circle clip-path="url(#SVGID_2_)" cx="36.1" cy="11.9" fill="#ffa769" r="5.1" style="fill: rgb(253, 222, 109);"></circle></g></g></svg>