<svg aria-hidden="true" style="position: absolute; width: 0; height: 0; overflow: hidden;" version="1.1" xmlns="http://www.w3.org/2000/svg" xmlns:xlink="http://www.w3.org/1999/xlink">
<defs>
<symbol id="icon-checkmark-outline" viewBox="0 0 32 32">
<path stroke-linejoin="round" stroke-linecap="round" stroke-miterlimit="4" stroke-width="1.6" d="M26 8l-14 16-6-6"></path>
</symbol>
<symbol id="icon-close" viewBox="0 0 32 32">
<path stroke-linejoin="round" stroke-linecap="round" stroke-miterlimit="4" stroke-width="1.6" d="M24 24l-16-16M24 8l-16 16"></path>
</symbol>
<symbol id="icon-copyright" viewBox="0 0 32 32">
<path stroke-linejoin="round" stroke-linecap="round" stroke-miterlimit="4" stroke-width="3.4286" d="M20.571 13.143c0 0-1.714-2.286-4.571-2.286s-5.143 2.286-5.143 5.143c0 2.857 2.286 5.143 5.143 5.143s4.571-2.286 4.571-2.286M30.286 16c0 7.89-6.396 14.286-14.286 14.286s-14.286-6.396-14.286-14.286c0-7.89 6.396-14.286 14.286-14.286s14.286 6.396 14.286 14.286z"></path>
</symbol>
<symbol id="icon-email" viewBox="0 0 42 32">
<path d="M37.661 0h-33.477c-2.302 0-4.164 1.8-4.164 4l-0.021 24c0 2.2 1.883 4 4.185 4h33.477c2.302 0 4.185-1.8 4.185-4v-24c0-2.2-1.883-4-4.185-4zM36.824 8.5l-14.793 8.84c-0.67 0.4-1.548 0.4-2.218 0l-14.793-8.84c-0.21-0.113-0.394-0.265-0.54-0.447s-0.253-0.391-0.312-0.614c-0.060-0.223-0.071-0.455-0.034-0.682s0.122-0.445 0.249-0.64c0.128-0.195 0.295-0.363 0.493-0.495s0.421-0.223 0.657-0.269c0.236-0.046 0.479-0.047 0.714-0.001s0.459 0.137 0.657 0.268l14.018 8.38 14.018-8.38c0.198-0.131 0.421-0.222 0.657-0.268s0.479-0.046 0.714 0.001 0.459 0.138 0.657 0.269c0.198 0.131 0.365 0.3 0.493 0.495s0.212 0.413 0.249 0.64c0.037 0.227 0.025 0.459-0.034 0.682s-0.166 0.432-0.313 0.614c-0.146 0.182-0.33 0.335-0.54 0.447z"></path>
</symbol>
<symbol id="icon-facebook" viewBox="0 0 32 32">
<path d="M16.001 0.376c-8.627 0-15.686 7.043-15.686 15.718 0 7.843 5.741 14.353 13.239 15.529v-10.98h-3.984v-4.549h3.984v-3.467c0-3.937 2.337-6.102 5.929-6.102 1.71 0 3.498 0.298 3.498 0.298v3.875h-1.976c-1.945 0-2.557 1.208-2.557 2.447v2.949h4.361l-0.706 4.549h-3.655v10.98c3.696-0.584 7.062-2.47 9.49-5.318s3.757-6.47 3.749-10.212c0-8.675-7.059-15.718-15.686-15.718z"></path>
</symbol>
<symbol id="icon-instagram" viewBox="0 0 32 32">
<path d="M9.412 0.314h13.176c5.020 0 9.098 4.078 9.098 9.098v13.176c0 2.413-0.959 4.727-2.665 6.433s-4.020 2.665-6.433 2.665h-13.176c-5.020 0-9.098-4.078-9.098-9.098v-13.176c0-2.413 0.959-4.727 2.665-6.433s4.020-2.665 6.433-2.665zM9.099 3.451c-1.498 0-2.934 0.595-3.993 1.654s-1.654 2.495-1.654 3.993v13.804c0 3.122 2.526 5.647 5.647 5.647h13.804c1.498 0 2.934-0.595 3.993-1.654s1.654-2.495 1.654-3.993v-13.804c0-3.122-2.525-5.647-5.647-5.647h-13.804zM24.236 5.804c0.52 0 1.019 0.207 1.386 0.574s0.574 0.866 0.574 1.386c0 0.52-0.207 1.019-0.574 1.387s-0.866 0.574-1.386 0.574c-0.52 0-1.019-0.207-1.387-0.574s-0.574-0.866-0.574-1.386c0-0.52 0.207-1.019 0.574-1.386s0.866-0.574 1.387-0.574zM16.001 8.157c2.080 0 4.075 0.826 5.546 2.297s2.297 3.466 2.297 5.546c0 2.080-0.826 4.075-2.297 5.546s-3.466 2.297-5.546 2.297c-2.080 0-4.075-0.826-5.546-2.297s-2.297-3.466-2.297-5.546c0-2.080 0.826-4.075 2.297-5.546s3.466-2.297 5.546-2.297zM16.001 11.294c-1.248 0-2.445 0.496-3.328 1.378s-1.378 2.080-1.378 3.328c0 1.248 0.496 2.445 1.378 3.328s2.080 1.378 3.328 1.378c1.248 0 2.445-0.496 3.328-1.378s1.378-2.080 1.378-3.328c0-1.248-0.496-2.445-1.378-3.328s-2.080-1.378-3.328-1.378z"></path>
</symbol>
<symbol id="icon-logo" viewBox="0 0 31 32">
<path d="M28.188 6.092l-10.032-5.474c-0.73-0.398-1.691-0.618-2.708-0.618s-1.979 0.219-2.708 0.618l-10.032 5.474c-1.519 0.829-2.708 2.777-2.708 4.434v10.951c0 1.657 1.19 3.605 2.708 4.434l10.032 5.473c0.73 0.398 1.691 0.617 2.708 0.617s1.979-0.219 2.708-0.617l10.032-5.476c1.519-0.829 2.708-2.776 2.708-4.434v-10.95c0-1.653-1.19-3.602-2.708-4.431zM3.269 24.99c-1.164-0.635-2.147-2.245-2.147-3.515v-4.68c3.572-0.266 5.688 0.629 8.329 1.753 2.377 1.012 5.236 2.226 9.908 2.88-0.873 0.158-1.754 0.304-2.633 0.449-4.771 0.787-9.282 1.536-11.749 4.045l-1.708-0.932zM18.337 15.465c-2.156 0.81-4.963 1.536-9.115 1.825-1.836-0.771-3.583-1.422-5.873-1.573l7.628-7.209 7.36 6.957zM17.804 13.462l5.485-5.184 4.123 3.897c-2.373 0.204-4.034 0.999-5.876 1.885-0.642 0.309-1.324 0.636-2.084 0.96l-1.648-1.558zM29.774 21.475c0 1.27-0.983 2.88-2.147 3.515l-10.032 5.475c-0.552 0.302-1.334 0.477-2.147 0.477s-1.595-0.173-2.147-0.476l-7.329-4.001c2.262-2.112 6.489-2.809 10.946-3.545 5.025-0.828 10.199-1.683 12.856-4.75l-0.001 3.304zM29.774 16.189c-1.179 2.418-3.862 3.685-7.058 4.518-5.507-0.378-8.752-1.457-11.412-2.543 5.439-0.616 8.35-2.014 10.739-3.163 2.353-1.131 4.238-2.032 7.731-1.775v2.962zM29.774 12.164c-0.285-0.020-0.564-0.034-0.831-0.040l-5.258-4.97c-0.052-0.049-0.114-0.088-0.182-0.115s-0.141-0.040-0.215-0.040c-0.074 0-0.147 0.014-0.215 0.040s-0.13 0.066-0.182 0.115l-5.88 5.559-5.639-5.329c-0.052-0.049-0.114-0.088-0.182-0.115s-0.141-0.040-0.215-0.040c-0.074 0-0.147 0.014-0.215 0.040s-0.13 0.066-0.182 0.115l-8.795 8.314c-0.216 0.007-0.437 0.018-0.662 0.034v-5.205c0-1.271 0.983-2.881 2.147-3.516l10.032-5.475c0.554-0.302 1.336-0.476 2.147-0.476s1.595 0.173 2.147 0.476l10.032 5.475c1.164 0.635 2.147 2.245 2.147 3.516l-0.003 1.638z"></path>
</symbol>
<symbol id="icon-menu" viewBox="0 0 54 32">
<path stroke-linejoin="miter" stroke-linecap="round" stroke-miterlimit="10" stroke-width="5.0526" d="M3.368 3.368h47.158M3.368 16.842h47.158M3.368 28.632h47.158"></path>
</symbol>
<symbol id="icon-phone" viewBox="0 0 20 32">
<path d="M15.795 0h-12.034c-0.997 0-1.954 0.383-2.659 1.065s-1.101 1.607-1.101 2.571v24.727c0 0.964 0.396 1.889 1.101 2.571s1.662 1.065 2.659 1.065h12.034c0.997 0 1.954-0.383 2.659-1.065s1.101-1.607 1.101-2.571v-24.727c0-0.964-0.396-1.889-1.101-2.571s-1.662-1.065-2.659-1.065zM9.778 30.546c-1.248 0-2.256-0.975-2.256-2.182s1.008-2.182 2.256-2.182c1.249 0 2.256 0.974 2.256 2.182s-1.008 2.182-2.256 2.182zM16.547 24.727h-13.538v-20.364h13.538v20.364z"></path>
</symbol>
<symbol id="icon-place" viewBox="0 0 23 32">
<path d="M11.294-0c-6.244 0-11.294 5.008-11.294 11.2 0 8.4 11.294 20.8 11.294 20.8s11.294-12.4 11.294-20.8c0-6.192-5.050-11.2-11.294-11.2zM11.294 15.2c-1.070 0-2.096-0.421-2.852-1.172s-1.181-1.768-1.181-2.828c0-1.061 0.425-2.078 1.181-2.828s1.782-1.172 2.852-1.172c1.070 0 2.096 0.421 2.852 1.172s1.181 1.768 1.181 2.828c0 1.061-0.425 2.078-1.181 2.828s-1.782 1.172-2.852 1.172z"></path>
</symbol>
<symbol id="icon-round" viewBox="0 0 49 32">
<path d="M24.727 0.97c-13.382 0-24.242 5.43-24.242 12.121 0 5.43 7.127 10.012 16.97 11.564v4.897c0 1.091 1.309 1.624 2.061 0.848l6.764-6.764c0.485-0.485 0.485-1.236 0-1.721l-6.764-6.764c-0.171-0.168-0.387-0.281-0.623-0.325s-0.478-0.018-0.699 0.075c-0.22 0.093-0.408 0.25-0.54 0.45s-0.201 0.434-0.2 0.674v3.685c-7.636-1.358-12.121-4.606-12.121-6.618 0-2.57 7.37-7.273 19.394-7.273s19.394 4.703 19.394 7.273c0 1.6-2.909 4.073-8.048 5.673-0.994 0.315-1.649 1.236-1.649 2.279 0 1.624 1.576 2.812 3.103 2.327 6.861-2.133 11.442-5.939 11.442-10.279 0-6.691-10.861-12.121-24.242-12.121z"></path>
</symbol>
<symbol id="icon-star" viewBox="0 0 32 32">
<path d="M15.247 6.173c0.237-0.764 1.268-0.764 1.505 0l1.913 6.165c0.106 0.342 0.41 0.573 0.753 0.573h6.189c0.767 0 1.085 1.028 0.465 1.499l-5.007 3.81c-0.277 0.211-0.393 0.585-0.288 0.927l1.913 6.165c0.237 0.764-0.598 1.399-1.218 0.927l-5.007-3.81c-0.277-0.211-0.653-0.211-0.93 0l-5.007 3.81c-0.62 0.472-1.455-0.163-1.218-0.927l1.913-6.165c0.106-0.342-0.010-0.716-0.288-0.927l-5.007-3.81c-0.62-0.472-0.301-1.499 0.465-1.499h6.189c0.343 0 0.647-0.231 0.753-0.573l1.913-6.165z"></path>
</symbol>
<symbol id="icon-telegram" viewBox="0 0 32 32">
<path d="M15.991 0.314c-3.102 0-6.135 0.92-8.715 2.644s-4.59 4.174-5.777 7.040c-1.187 2.866-1.498 6.020-0.893 9.063s2.099 5.838 4.293 8.032c2.194 2.194 4.989 3.688 8.032 4.293s6.197 0.295 9.063-0.893c2.866-1.187 5.316-3.198 7.040-5.777s2.644-5.612 2.644-8.715c0-2.060-0.406-4.1-1.194-6.003s-1.944-3.632-3.4-5.089c-1.457-1.457-3.186-2.612-5.089-3.4s-3.943-1.194-6.003-1.194zM20.98 24.082c-0.059 0.147-0.148 0.279-0.262 0.388s-0.25 0.193-0.399 0.245c-0.149 0.052-0.307 0.072-0.464 0.058s-0.31-0.061-0.447-0.139l-4.259-3.31-2.733 2.522c-0.063 0.047-0.138 0.077-0.216 0.088s-0.158 0.002-0.231-0.027l0.524-4.689 0.016 0.014 0.011-0.093c0 0 7.663-6.977 7.975-7.274 0.317-0.296 0.212-0.361 0.212-0.361 0.019-0.361-0.566 0-0.566 0l-10.154 6.532-4.227-1.44c0 0-0.649-0.232-0.711-0.745-0.064-0.508 0.731-0.784 0.731-0.784l16.811-6.679c0 0 1.382-0.615 1.382 0.405l-2.993 15.288z"></path>
</symbol>
</defs>
</svg>
